<svg class="border shadow-md" viewBox="0 0 614.24 614.24" xmlns="http://www.w3.org/2000/svg" preserveAspectRatio="none" style="width: 614.24px; height: 614.24px;"><rect class="bg" id="bg" x="0" y="0" width="614.24" height="614.24" fill="#ffffff"/><g transform="rotate(0 307.12 307.12)"><path d="M -203.56 -13.87 S -142.00 -39.87&#10;            0.00 -13.87 24.56 -46.87&#10;            203.56 -13.87 295.34 -37.87&#10;            407.12 -13.87 498.90 -52.87&#10;            610.68 -13.87 655.24 -51.87&#10;            814.24 -13.87 906.02 -35.81&#10;            1017.80 -13.87 h 110 V 814.24 H -203.56 Z" fill="#F5E5FC" id="-1"/><path d="M -203.56 30.00 S -111.78 8.06&#10;            0.00 30.00 91.78 8.06&#10;            203.56 30.00 227.12 8.06&#10;            407.12 30.00 439.68 8.06&#10;            610.68 30.00 702.46 8.06&#10;            814.24 30.00 835.80 -11.00&#10;            1017.80 30.00 h 110 V 814.24 H -203.56 Z" fill="#f4dbf0" id="0"/><path d="M -203.56 73.87 S -178.00 37.87&#10;            0.00 73.87 91.78 51.94&#10;            203.56 73.87 208.12 51.94&#10;            407.12 73.87 498.90 32.87&#10;            610.68 73.87 691.24 51.94&#10;            814.24 73.87 833.80 51.94&#10;            1017.80 73.87 h 110 V 814.24 H -203.56 Z" fill="#f3d1e4" id="1"/><path d="M -203.56 117.75 S -111.78 95.75&#10;            0.00 117.75 91.78 90.75&#10;            203.56 117.75 295.34 82.75&#10;            407.12 117.75 455.68 95.81&#10;            610.68 117.75 702.46 95.81&#10;            814.24 117.75 804.80 95.81&#10;            1017.80 117.75 h 110 V 814.24 H -203.56 Z" fill="#f2c7d8" id="2"/><path d="M -203.56 161.62 S -195.00 139.69&#10;            0.00 161.62 -4.44 139.69&#10;            203.56 161.62 213.12 138.62&#10;            407.12 161.62 419.68 139.69&#10;            610.68 161.62 694.24 130.62&#10;            814.24 161.62 906.02 139.69&#10;            1017.80 161.62 h 110 V 814.24 H -203.56 Z" fill="#f1bdcc" id="3"/><path d="M -203.56 205.50 S -111.78 183.56&#10;            0.00 205.50 91.78 183.50&#10;            203.56 205.50 295.34 183.56&#10;            407.12 205.50 434.68 183.56&#10;            610.68 205.50 676.24 167.50&#10;            814.24 205.50 906.02 181.50&#10;            1017.80 205.50 h 110 V 814.24 H -203.56 Z" fill="#f0b3c0" id="4"/><path d="M -203.56 249.37 S -111.78 227.43&#10;            0.00 249.37 91.78 208.37&#10;            203.56 249.37 295.34 206.37&#10;            407.12 249.37 484.68 227.43&#10;            610.68 249.37 627.24 213.37&#10;            814.24 249.37 837.80 218.37&#10;            1017.80 249.37 h 110 V 814.24 H -203.56 Z" fill="#efa9b4" id="5"/><path d="M -203.56 293.25 S -111.78 271.31&#10;            0.00 293.25 91.78 271.31&#10;            203.56 293.25 295.34 265.25&#10;            407.12 293.25 483.68 271.31&#10;            610.68 293.25 648.24 262.25&#10;            814.24 293.25 906.02 271.31&#10;            1017.80 293.25 h 110 V 814.24 H -203.56 Z" fill="#ee9fa8" id="6"/><path d="M -203.56 337.12 S -111.78 315.18&#10;            0.00 337.12 22.56 315.18&#10;            203.56 337.12 215.12 315.18&#10;            407.12 337.12 431.68 315.18&#10;            610.68 337.12 702.46 300.12&#10;            814.24 337.12 819.80 315.18&#10;            1017.80 337.12 h 110 V 814.24 H -203.56 Z" fill="#ed959c" id="7"/><path d="M -203.56 380.99 S -111.78 359.06&#10;            0.00 380.99 91.78 359.06&#10;            203.56 380.99 295.34 354.99&#10;            407.12 380.99 498.90 341.99&#10;            610.68 380.99 702.46 347.99&#10;            814.24 380.99 906.02 358.99&#10;            1017.80 380.99 h 110 V 814.24 H -203.56 Z" fill="#ec8b90" id="8"/><path d="M -203.56 424.87 S -111.78 402.93&#10;            0.00 424.87 91.78 400.87&#10;            203.56 424.87 295.34 396.87&#10;            407.12 424.87 457.68 387.87&#10;            610.68 424.87 693.24 402.93&#10;            814.24 424.87 827.80 398.87&#10;            1017.80 424.87 h 110 V 814.24 H -203.56 Z" fill="#eb8184" id="9"/><path id="10" d="M -203.56 468.74 S -158.00 446.81&#10;            0.00 468.74 27.56 434.74&#10;            203.56 468.74 295.34 446.81&#10;            407.12 468.74 498.90 436.74&#10;            610.68 468.74 629.24 446.81&#10;            814.24 468.74 905.80 446.81&#10;            1017.80 468.74 h 110 V 814.24 H -203.56 Z" fill="#ea7778"/><path id="11" d="M -203.56 512.62 S -180.00 490.68&#10;            0.00 512.62 91.78 490.68&#10;            203.56 512.62 295.34 490.68&#10;            407.12 512.62 467.68 481.62&#10;            610.68 512.62 628.24 490.68&#10;            814.24 512.62 899.80 481.62&#10;            1017.80 512.62 h 110 V 814.24 H -203.56 Z" fill="#e96d6c"/><path id="12" d="M -203.56 556.49 S -111.78 515.49&#10;            0.00 556.49 31.56 534.55&#10;            203.56 556.49 255.12 534.55&#10;            407.12 556.49 418.68 534.55&#10;            610.68 556.49 641.24 534.55&#10;            814.24 556.49 906.02 520.49&#10;            1017.80 556.49 h 110 V 814.24 H -203.56 Z" fill="#e86360"/><path id="13" d="M -203.56 600.37 S -111.78 567.37&#10;            0.00 600.37 91.78 578.43&#10;            203.56 600.37 270.12 566.37&#10;            407.12 600.37 498.90 570.37&#10;            610.68 600.37 702.46 572.37&#10;            814.24 600.37 866.80 578.43&#10;            1017.80 600.37 h 110 V 814.24 H -203.56 Z" fill="#e75954"/></g></svg>