<svg class="border shadow-md" viewBox="0 0 767.8000000000001 614.24" xmlns="http://www.w3.org/2000/svg" preserveAspectRatio="none" style="width: 767.8px; height: 614.24px;"><rect class="bg" id="bg" x="0" y="0" width="767.8000000000001" height="614.24" fill="#ffffff"/><g transform="rotate(0 383.90000000000003 307.12)"><path id="-1" d="M -483.90 -31.42 S -251.95 -89.42&#10;            0.00 -31.42 231.95 -67.42&#10;            483.90 -31.42 715.85 -65.42&#10;            967.80 -31.42 1077.70 -87.42&#10;            1451.70 -31.42 h 110 V 814.24 H -483.90 Z" fill="#F5E5FC"/><path id="0" d="M -483.90 30.00 S -251.95 -0.71&#10;            0.00 30.00 22.90 -30.00&#10;            483.90 30.00 715.85 -9.00&#10;            967.80 30.00 1110.70 -0.71&#10;            1451.70 30.00 h 110 V 814.24 H -483.90 Z" fill="#e2d8f1"/><path id="1" d="M -483.90 91.42 S -251.95 48.42&#10;            0.00 91.42 231.95 60.71&#10;            483.90 91.42 617.80 60.71&#10;            967.80 91.42 1048.70 58.42&#10;            1451.70 91.42 h 110 V 814.24 H -483.90 Z" fill="#cfcbe6"/><path id="2" d="M -483.90 152.85 S -276.00 104.85&#10;            0.00 152.85 231.95 122.14&#10;            483.90 152.85 715.85 115.85&#10;            967.80 152.85 1199.75 92.85&#10;            1451.70 152.85 h 110 V 814.24 H -483.90 Z" fill="#bcbedb"/><path id="3" d="M -483.90 214.27 S -251.95 171.27&#10;            0.00 214.27 231.95 183.56&#10;            483.90 214.27 653.80 157.27&#10;            967.80 214.27 1199.75 156.27&#10;            1451.70 214.27 h 110 V 814.24 H -483.90 Z" fill="#a9b1d0"/><path id="4" d="M -483.90 275.70 S -251.95 244.98&#10;            0.00 275.70 231.95 229.70&#10;            483.90 275.70 715.85 244.98&#10;            967.80 275.70 1199.75 244.98&#10;            1451.70 275.70 h 110 V 814.24 H -483.90 Z" fill="#96a4c5"/><path id="5" d="M -483.90 337.12 S -409.00 279.12&#10;            0.00 337.12 210.90 306.41&#10;            483.90 337.12 715.85 301.12&#10;            967.80 337.12 1007.70 293.12&#10;            1451.70 337.12 h 110 V 814.24 H -483.90 Z" fill="#8397ba"/><path id="6" d="M -483.90 398.54 S -251.95 348.54&#10;            0.00 398.54 167.90 364.54&#10;            483.90 398.54 556.80 346.54&#10;            967.80 398.54 1013.70 367.83&#10;            1451.70 398.54 h 110 V 814.24 H -483.90 Z" fill="#708aaf"/><path id="7" d="M -483.90 459.97 S -378.00 428.97&#10;            0.00 459.97 231.95 429.26&#10;            483.90 459.97 637.80 429.26&#10;            967.80 459.97 1072.70 429.26&#10;            1451.70 459.97 h 110 V 814.24 H -483.90 Z" fill="#5d7da4"/><path id="8" d="M -483.90 521.39 S -364.00 462.39&#10;            0.00 521.39 172.90 464.39&#10;            483.90 521.39 632.80 464.39&#10;            967.80 521.39 1199.75 490.68&#10;            1451.70 521.39 h 110 V 814.24 H -483.90 Z" fill="#4a7099"/><path id="9" d="M -483.90 582.82 S -251.95 552.10&#10;            0.00 582.82 -9.10 552.10&#10;            483.90 582.82 528.80 552.10&#10;            967.80 582.82 1199.75 531.82&#10;            1451.70 582.82 h 110 V 814.24 H -483.90 Z" fill="#37638e"/></g></svg>